<svg width="300" height="300"  xmlns="http://www.w3.org/2000/svg" clip-rule="evenodd">

  

  <g id="Layer_2" data-name="Layer 2"><g id="Layer_1-2" data-name="Layer 1"><path d="M182.58,154.85c13.1-3.37,22.27-14.22,22.27-30.13,0-23-17-34.43-43.42-34.43h-45.2a69.87,69.87,0,0,0,4.82-26C121.05,27,95.12,0,53.86,0H0V129.27H53.86c15.78,0,29.32-4.11,40-11.26V222.78H163.3c28.82,0,44.54-13.1,44.54-36.31C207.84,171.69,198.86,158.78,182.58,154.85ZM50.21,93.12H40.53V35.42h9.68C68.1,35.42,80,45.47,80,64.27S68.1,93.12,50.21,93.12Zm85.21,30.1h16.09c7.49,0,11.05,3,11.05,9.55,0,6.36-3.56,9.17-11.05,9.17H135.42Zm18.9,66.25h-18.9V170.76h18.9c7.49,0,11,3.18,11,9.54C165.36,186.85,161.81,189.47,154.32,189.47Z" style="fill:#fff"/></g></g>
</svg>



